<svg xmlns="http://www.w3.org/2000/svg" xmlns:xlink="http://www.w3.org/1999/xlink" id="Layer_1" version="1.1" viewBox="0 0 512 512" xml:space="preserve" style="enable-background:new 0 0 512 512"><style type="text/css">.st0{fill:#e8d55f;stroke:#414042;stroke-width:20;stroke-miterlimit:10}.st1{fill:#f9f5b8}.st2{fill:#fbec7d}.st3{fill:#5fc5e5;stroke:#414042;stroke-width:16;stroke-miterlimit:10}.st4{fill:#414042}.st5,.st6{fill:none}.st5,.st6,.st7{stroke:#414042;stroke-miterlimit:10}.st5{stroke-width:12.1497;stroke-linecap:round;stroke-linejoin:round}.st6{stroke-width:20}.st7{fill:#d1384a;stroke-width:16}</style><circle id="XMLID_217_" cx="262.4" cy="266.6" r="195.1" class="st0"/><path id="XMLID_216_" d="M445.9,268c0,93.1-54.1,160.1-151.4,173.3C197.9,454.5,92.9,361.1,92.9,268s79-178,176.5-178 S445.9,174.9,445.9,268z" class="st1"/><path id="XMLID_215_" d="M439.7,267.8c0,98.4-54.1,169.3-151.4,183.3C191.9,465,86.9,366.3,86.9,267.8 s79-188.4,176.4-189.4C377.8,77.3,439.7,169.4,439.7,267.8z" class="st2"/><circle id="XMLID_214_" cx="404.6" cy="71.5" r="26.6" class="st3"/><circle id="XMLID_208_" cx="265" cy="313.2" r="5" class="st4"/><circle id="XMLID_207_" cx="290.1" cy="205.2" r="5" class="st4"/><circle id="XMLID_206_" cx="173" cy="475.8" r="11.3" class="st4"/><path id="XMLID_205_" d="M386.3,159.3c-4.8-13.7-16.9-22-27.2-18.4" class="st5"/><circle id="XMLID_204_" cx="178" cy="48.2" r="5" class="st4"/><circle id="XMLID_203_" cx="321.6" cy="43.2" r="5" class="st4"/><circle id="XMLID_202_" cx="409.6" cy="119.2" r="5" class="st4"/><circle id="XMLID_201_" cx="392.9" cy="31.9" r="7.7" class="st4"/><path id="XMLID_1_" d="M457.4,292.6c20.2,22.5,28.8,43.3,22.3,59c-17,40.6-129.5,32-251.1-19S22,207.2,39.1,166.7 c7.7-18.4,34.9-26.7,73.7-25.5" class="st6"/><circle id="XMLID_213_" cx="228.5" cy="332.6" r="22.6" class="st7"/></svg>